<svg xmlns="http://www.w3.org/2000/svg" width="255" height="255" viewBox="0 0 255 255"><g transform="translate(1668 -937)"><g transform="translate(-1668 937)"><path d="M212.59,18.813H201.3V0H182.489V18.813H58.321V0H39.508V18.813H28.22A28.252,28.252,0,0,0,0,47.033V212.59a28.252,28.252,0,0,0,28.22,28.22H212.59a28.252,28.252,0,0,0,28.22-28.22V47.033A28.252,28.252,0,0,0,212.59,18.813ZM222,212.59A9.417,9.417,0,0,1,212.59,222H28.22a9.417,9.417,0,0,1-9.407-9.407V88.422H222Zm0-142.981H18.813V47.033a9.417,9.417,0,0,1,9.407-9.407H39.508V56.44H58.321V37.627H182.489V56.44H201.3V37.627H212.59A9.417,9.417,0,0,1,222,47.033Z" fill="#fff"/><g transform="translate(35.745 108.176)"><g transform="translate(0 0)"><rect width="19" height="19" transform="translate(0.255 -0.176)" fill="#fff"/></g></g><g transform="translate(73.372 108.176)"><g transform="translate(0 0)"><rect width="19" height="19" transform="translate(-0.372 -0.176)" fill="#fff"/></g></g><g transform="translate(110.998 108.176)"><g transform="translate(0 0)"><rect width="19" height="19" transform="translate(0.002 -0.176)" fill="#fff"/></g></g><g transform="translate(148.625 108.176)"><g transform="translate(0 0)"><rect width="18" height="19" transform="translate(0.375 -0.176)" fill="#fff"/></g></g><g transform="translate(186.251 108.176)"><g transform="translate(0 0)"><rect width="19" height="19" transform="translate(-0.251 -0.176)" fill="#fff"/></g></g><g transform="translate(35.745 145.803)"><g transform="translate(0 0)"><rect width="19" height="19" transform="translate(0.255 0.197)" fill="#fff"/></g></g><g transform="translate(73.372 145.803)"><g transform="translate(0 0)"><rect width="19" height="19" transform="translate(-0.372 0.197)" fill="#fff"/></g></g><g transform="translate(110.998 145.803)"><g transform="translate(0 0)"><rect width="19" height="19" transform="translate(0.002 0.197)" fill="#fff"/></g></g><g transform="translate(148.625 145.803)"><g transform="translate(0 0)"><rect width="18" height="19" transform="translate(0.375 0.197)" fill="#fff"/></g></g><g transform="translate(35.745 183.429)"><g transform="translate(0 0)"><rect width="19" height="19" transform="translate(0.255 -0.429)" fill="#fff"/></g></g><g transform="translate(73.372 183.429)"><g transform="translate(0 0)"><rect width="19" height="19" transform="translate(-0.372 -0.429)" fill="#fff"/></g></g><g transform="translate(110.998 183.429)"><g transform="translate(0 0)"><rect width="19" height="19" transform="translate(0.002 -0.429)" fill="#fff"/></g></g><g transform="translate(148.625 183.429)"><g transform="translate(0 0)"><rect width="18" height="19" transform="translate(0.375 -0.429)" fill="#fff"/></g></g><g transform="translate(186.251 145.803)"><g transform="translate(0 0)"><rect width="19" height="19" transform="translate(-0.251 0.197)" fill="#fff"/></g></g></g><circle cx="68" cy="68" r="68" transform="translate(-1549 1056)" fill="#fff"/><path d="M27.106,30.415a10.939,10.939,0,0,0-.732-4.052A10.069,10.069,0,0,0,24.006,22.9,17.716,17.716,0,0,0,19.76,19.92a44.015,44.015,0,0,0-6.419-2.636,51.277,51.277,0,0,1-8.323-3.295A25.247,25.247,0,0,1-1.255,9.571,17.422,17.422,0,0,1-5.209,3.714,20.006,20.006,0,0,1-6.575-3.95a21.433,21.433,0,0,1,1.22-7.4,17.147,17.147,0,0,1,3.49-5.809,17.783,17.783,0,0,1,5.492-4A23.231,23.231,0,0,1,10.9-23.183v-10.69h7.273v10.739q8.2,1.123,12.765,6.883T35.5-.484H26.52a21.8,21.8,0,0,0-.781-6,13.989,13.989,0,0,0-2.319-4.735,10.747,10.747,0,0,0-3.807-3.124,11.576,11.576,0,0,0-5.2-1.123,15.354,15.354,0,0,0-5.321.83,9.947,9.947,0,0,0-3.71,2.319,9.5,9.5,0,0,0-2.2,3.588A14,14,0,0,0,2.455-4.1,12.292,12.292,0,0,0,3.138.126,9.136,9.136,0,0,0,5.433,3.567a18.127,18.127,0,0,0,4.3,2.953A45.35,45.35,0,0,0,16.465,9.23a55.957,55.957,0,0,1,8.347,3.393,24.757,24.757,0,0,1,6.175,4.369,16.933,16.933,0,0,1,3.832,5.76,20.137,20.137,0,0,1,1.318,7.566,20.762,20.762,0,0,1-1.318,7.615,16.556,16.556,0,0,1-3.783,5.809,18.558,18.558,0,0,1-5.955,3.905,27.178,27.178,0,0,1-7.786,1.9v9.323H10.07V49.55a26.311,26.311,0,0,1-7.249-1.708,18.839,18.839,0,0,1-6.2-3.954A18.547,18.547,0,0,1-7.7,37.322a25.4,25.4,0,0,1-1.611-9.543H-.278a16.927,16.927,0,0,0,1.22,6.883,11.551,11.551,0,0,0,3.2,4.344,11.516,11.516,0,0,0,4.393,2.245,19.048,19.048,0,0,0,4.857.635,19.2,19.2,0,0,0,5.809-.805,12.32,12.32,0,0,0,4.3-2.294,9.827,9.827,0,0,0,2.685-3.612A11.771,11.771,0,0,0,27.106,30.415Z" transform="translate(-1494.404 1111.645)" fill="#333" stroke="#333" stroke-width="2"/></g></svg>