<svg xmlns="http://www.w3.org/2000/svg" width="64" height="64" viewBox="0 0 64 64"><g transform="translate(1465 -388)"><g transform="translate(-1465 388)" fill="none" stroke="#fff" stroke-width="4"><circle cx="32" cy="32" r="32" stroke="none"/><circle cx="32" cy="32" r="30" fill="none"/></g><path d="M5.625-7.507a4.486,4.486,0,0,0-.3-1.662,4.129,4.129,0,0,0-.971-1.421,7.266,7.266,0,0,0-1.742-1.221A18.051,18.051,0,0,0-.02-12.893a21.029,21.029,0,0,1-3.413-1.351,10.354,10.354,0,0,1-2.573-1.812,7.145,7.145,0,0,1-1.622-2.4A8.2,8.2,0,0,1-8.188-21.6a8.79,8.79,0,0,1,.5-3.033,7.032,7.032,0,0,1,1.431-2.382A7.293,7.293,0,0,1-4-28.658a9.527,9.527,0,0,1,2.983-.831v-4.384H1.962v4.4A7.715,7.715,0,0,1,7.2-26.646,10.145,10.145,0,0,1,9.069-20.18H5.385a8.941,8.941,0,0,0-.32-2.462,5.737,5.737,0,0,0-.951-1.942,4.408,4.408,0,0,0-1.562-1.281,4.748,4.748,0,0,0-2.132-.46,6.3,6.3,0,0,0-2.182.34,4.079,4.079,0,0,0-1.521.951,3.9,3.9,0,0,0-.9,1.471,5.742,5.742,0,0,0-.3,1.9,5.041,5.041,0,0,0,.28,1.732,3.747,3.747,0,0,0,.941,1.411A7.434,7.434,0,0,0-1.5-17.307,18.6,18.6,0,0,0,1.261-16.2,22.949,22.949,0,0,1,4.685-14.8a10.153,10.153,0,0,1,2.532,1.792A6.945,6.945,0,0,1,8.789-10.65a8.258,8.258,0,0,1,.541,3.1,8.515,8.515,0,0,1-.541,3.123A6.79,6.79,0,0,1,7.237-2.042,7.611,7.611,0,0,1,4.795-.44,11.146,11.146,0,0,1,1.6.34V4.164H-1.361V.34a10.791,10.791,0,0,1-2.973-.7A7.726,7.726,0,0,1-6.877-1.982,7.606,7.606,0,0,1-8.648-4.675a10.418,10.418,0,0,1-.661-3.914h3.7a6.942,6.942,0,0,0,.5,2.823A4.737,4.737,0,0,0-3.794-3.984a4.723,4.723,0,0,0,1.8.921A7.812,7.812,0,0,0,0-2.8a7.875,7.875,0,0,0,2.382-.33,5.053,5.053,0,0,0,1.762-.941,4.03,4.03,0,0,0,1.1-1.481A4.828,4.828,0,0,0,5.625-7.507Z" transform="translate(-1433 435)" fill="#fff"/></g></svg>