<svg xmlns="http://www.w3.org/2000/svg" width="39.265" height="40.8" viewBox="0 0 39.265 40.8"><g transform="translate(0.515 0.25)"><line x2="6.72" y2="7.25" transform="translate(22.82 15.65)" stroke-width="1" stroke="#fff" stroke-linecap="round" stroke-linejoin="round" fill="none"/><line x1="7.73" y2="7.17" transform="translate(10.72 20.15)" stroke-width="1" stroke="#fff" stroke-linecap="round" stroke-linejoin="round" fill="none"/><line x1="3.86" y2="3.58" transform="translate(12.66 25.83)" stroke-width="1" stroke="#fff" stroke-linecap="round" stroke-linejoin="round" fill="none"/><line x1="5.37" y2="4.98" transform="translate(14.6 26.53)" stroke-width="1" stroke="#fff" stroke-linecap="round" stroke-linejoin="round" fill="none"/><line x1="4.41" y2="4.08" transform="translate(16.54 29.52)" stroke-width="1" stroke="#fff" stroke-linecap="round" stroke-linejoin="round" fill="none"/><path d="M8.49,31.41,16,39.55,37.75,19.42,34.9,16.35l-.06.06a4.1,4.1,0,0,1-5.58-6l.06-.06L26.47,7.26l-3.92,3.63" fill="none" stroke="#fff" stroke-linecap="round" stroke-linejoin="round" stroke-width="2"/><path d="M8.49,31.41,4.75,27.39l17.8-16.5" fill="none" stroke="#fff" stroke-linecap="round" stroke-linejoin="round" stroke-width="2"/><path d="M24.09,4.81,20,3.79v.08A4.1,4.1,0,0,1,17.154,6.9a4.417,4.417,0,0,1-2.044.067,3.842,3.842,0,0,1-1.986-1.081A4.1,4.1,0,0,1,12.05,1.87a.24.24,0,0,1,0-.08L8,.75.75,29.46" fill="none" stroke="#fff" stroke-linecap="round" stroke-linejoin="round" stroke-width="2"/><line x2="3" y2="1" transform="translate(0.75 29.71)" stroke-width="2" stroke="#fff" stroke-linecap="round" stroke-linejoin="round" fill="none"/></g></svg>