<svg height="512pt" viewBox="0 0 512 512" width="512pt" xmlns="http://www.w3.org/2000/svg"><path d="m512 391v106c0 8.398438-6.597656 15-15 15h-420c-8.402344 0-15-6.601562-15-15v-46l27.300781-30h394.5zm0 0" fill="#fdbf00"/><path d="m512 391v106c0 8.398438-6.597656 15-15 15h-210v-91h196.800781zm0 0" fill="#ff9f00"/><path d="m512 121v270c0 33-27 60-60 60h-30l-360-60v-270l41.398438-31h384.300781zm0 0" fill="#ede9e8"/><path d="m512 121v270c0 33-27 60-60 60h-30l-135-22.5v-338.5h200.699219zm0 0" fill="#dfd7d5"/><path d="m512 45v76h-450v-76c0-8.402344 6.597656-15 15-15h420c8.402344 0 15 6.597656 15 15zm0 0" fill="#ff4b00"/><path d="m512 45v76h-225v-91h210c8.402344 0 15 6.597656 15 15zm0 0" fill="#dd3400"/><path d="m137 90c-8.289062 0-15-6.710938-15-15v-60c0-8.289062 6.710938-15 15-15s15 6.710938 15 15v60c0 8.289062-6.710938 15-15 15zm0 0" fill="#53433f"/><path d="m197 90c-8.289062 0-15-6.710938-15-15v-60c0-8.289062 6.710938-15 15-15s15 6.710938 15 15v60c0 8.289062-6.710938 15-15 15zm0 0" fill="#53433f"/><path d="m377 90c-8.289062 0-15-6.710938-15-15v-60c0-8.289062 6.710938-15 15-15s15 6.710938 15 15v60c0 8.289062-6.710938 15-15 15zm0 0" fill="#3e322e"/><path d="m437 90c-8.289062 0-15-6.710938-15-15v-60c0-8.289062 6.710938-15 15-15s15 6.710938 15 15v60c0 8.289062-6.710938 15-15 15zm0 0" fill="#3e322e"/><path d="m197 211h-30c-8.289062 0-15-6.710938-15-15s6.710938-15 15-15h30c8.289062 0 15 6.710938 15 15s-6.710938 15-15 15zm0 0" fill="#ff7816"/><path d="m317 196c0 8.398438-6.597656 15-15 15h-30c-8.402344 0-15-6.601562-15-15 0-8.402344 6.597656-15 15-15h30c8.402344 0 15 6.597656 15 15zm0 0" fill="#ff7816"/><path d="m407 211h-30c-8.289062 0-15-6.710938-15-15s6.710938-15 15-15h30c8.289062 0 15 6.710938 15 15s-6.710938 15-15 15zm0 0" fill="#ff4b00"/><path d="m197 271h-30c-8.289062 0-15-6.710938-15-15s6.710938-15 15-15h30c8.289062 0 15 6.710938 15 15s-6.710938 15-15 15zm0 0" fill="#ff7816"/><path d="m317 256c0 8.398438-6.597656 15-15 15h-30c-8.402344 0-15-6.601562-15-15 0-8.402344 6.597656-15 15-15h30c8.402344 0 15 6.597656 15 15zm0 0" fill="#ff7816"/><path d="m407 271h-30c-8.289062 0-15-6.710938-15-15s6.710938-15 15-15h30c8.289062 0 15 6.710938 15 15s-6.710938 15-15 15zm0 0" fill="#ff4b00"/><path d="m197 331h-30c-8.289062 0-15-6.710938-15-15s6.710938-15 15-15h30c8.289062 0 15 6.710938 15 15s-6.710938 15-15 15zm0 0" fill="#ff7816"/><path d="m317 316c0 8.398438-6.597656 15-15 15h-30c-8.402344 0-15-6.601562-15-15 0-8.402344 6.597656-15 15-15h30c8.402344 0 15 6.597656 15 15zm0 0" fill="#ff7816"/><g fill="#ff4b00"><path d="m407 331h-30c-8.289062 0-15-6.710938-15-15s6.710938-15 15-15h30c8.289062 0 15 6.710938 15 15s-6.710938 15-15 15zm0 0"/><path d="m302 331h-15v-30h15c8.402344 0 15 6.597656 15 15 0 8.398438-6.597656 15-15 15zm0 0"/><path d="m302 271h-15v-30h15c8.402344 0 15 6.597656 15 15 0 8.398438-6.597656 15-15 15zm0 0"/><path d="m302 211h-15v-30h15c8.402344 0 15 6.597656 15 15 0 8.398438-6.597656 15-15 15zm0 0"/></g><path d="m452 451h-405c-24.902344 0-47-20.101562-47-45 0-8.402344 7.597656-15 16-15h362.5c6.902344 0 13.199219 4.800781 14.699219 11.398438 5.101562 27.601562 29.703125 48.601562 58.800781 48.601562zm0 0" fill="#dfd7d5"/><path d="m452 451h-165v-60h91.5c6.902344 0 13.199219 4.800781 14.699219 11.398438 5.101562 27.601562 29.703125 48.601562 58.800781 48.601562zm0 0" fill="#d2c5c2"/></svg>