<?xml version="1.0" encoding="utf-8"?>
<!-- Generator: Adobe Illustrator 23.0.0, SVG Export Plug-In . SVG Version: 6.00 Build 0)  -->
<svg version="1.1" id="Layer_1" xmlns="http://www.w3.org/2000/svg" xmlns:xlink="http://www.w3.org/1999/xlink" x="0px" y="0px"
	 viewBox="0 0 38.5 40.3" style="enable-background:new 0 0 38.5 40.3;" xml:space="preserve">
<style type="text/css">
	.st0{fill:none;stroke:#DE0000;stroke-linecap:round;stroke-linejoin:round;}
	.st1{fill:none;stroke:#DE0000;stroke-width:1.5;stroke-linecap:round;stroke-linejoin:round;}
</style>
<title>Asset 8</title>
<line class="st0" x1="22.8" y1="15.6" x2="29.5" y2="22.9"/>
<line class="st0" x1="18.5" y1="20.1" x2="10.7" y2="27.3"/>
<line class="st0" x1="16.5" y1="25.8" x2="12.7" y2="29.4"/>
<line class="st0" x1="20" y1="26.5" x2="14.6" y2="31.5"/>
<line class="st0" x1="21" y1="29.5" x2="16.5" y2="33.6"/>
<path class="st1" d="M8.5,31.4l7.5,8.1l21.8-20.1l-2.8-3.1l-0.1,0.1c-1.7,1.5-4.3,1.3-5.8-0.4c-1.4-1.6-1.3-4,0.2-5.6l0.1-0.1
	l-2.9-3.1l-3.9,3.6"/>
<polyline class="st1" points="8.5,31.4 4.8,27.4 22.5,10.9 "/>
<path class="st1" d="M24.1,4.8l-4.1-1c0,0,0,0,0,0.1c-0.5,2.2-2.7,3.6-4.9,3.1S11.5,4.3,12,2.1c0-0.1,0-0.1,0-0.2c0,0,0-0.1,0-0.1
	L8,0.8L0.8,29.5"/>
<line class="st1" x1="0.8" y1="29.7" x2="3.8" y2="30.7"/>
</svg>
